# xmcd
#
# Track frame offsets:
#       183
#       19518
#       44723
#       59620
#       89043
#       109078
#       131650
#       164285
#       184163
#
# Disc length: 2931 seconds
#
# Revision: 0
# Processed by: cddbd v1.5PL3 Copyright (c) Steve Scherf et al.
# Submitted via: WhereIsIt 3.51
#
DISCID=7f0b7109
DTITLE=Siegel and Schwall - The Reunion Concert
DYEAR=1990
DGENRE=Blues
TTITLE0=You Don't Love Me Like That
TTITLE1=Devil
TTITLE2=Leavin'
TTITLE3=Hey, Billie Jean
TTITLE4=I Wanna Love Ya
TTITLE5=I Think It Was The Wine
TTITLE6=I Don't Want You To Be My Girl
TTITLE7=When I've Been Drinkin'
TTITLE8=Hush, Hush
EXTD=
EXTT0=
EXTT1=
EXTT2=
EXTT3=
EXTT4=
EXTT5=
EXTT6=
EXTT7=
EXTT8=
PLAYORDER=
